<svg width="237" height="60" viewBox="0 0 237 60" fill="none" xmlns="http://www.w3.org/2000/svg">
<path d="M1.47828 23.6C1.47828 21.8667 1.78495 20.1733 2.39828 18.52C3.03828 16.84 3.95828 15.32 5.15828 13.96C6.35828 12.5733 7.82495 11.48 9.55828 10.68C11.2916 9.85333 13.2649 9.44 15.4783 9.44C18.0916 9.44 20.3449 10.0133 22.2383 11.16C24.1583 12.3067 25.5849 13.8 26.5183 15.64L22.2783 18.56C21.7983 17.4933 21.1716 16.6533 20.3983 16.04C19.6249 15.4 18.7983 14.96 17.9183 14.72C17.0383 14.4533 16.1716 14.32 15.3183 14.32C13.9316 14.32 12.7183 14.6 11.6783 15.16C10.6649 15.72 9.81162 16.4533 9.11828 17.36C8.42495 18.2667 7.90495 19.28 7.55828 20.4C7.23828 21.52 7.07828 22.64 7.07828 23.76C7.07828 25.0133 7.27828 26.2267 7.67828 27.4C8.07828 28.5467 8.63828 29.5733 9.35828 30.48C10.1049 31.36 10.9849 32.0667 11.9983 32.6C13.0383 33.1067 14.1716 33.36 15.3983 33.36C16.2783 33.36 17.1716 33.2133 18.0783 32.92C18.9849 32.6267 19.8249 32.16 20.5983 31.52C21.3716 30.88 21.9716 30.0533 22.3983 29.04L26.9183 31.64C26.3583 33.0533 25.4383 34.2533 24.1583 35.24C22.9049 36.2267 21.4916 36.9733 19.9183 37.48C18.3449 37.9867 16.7849 38.24 15.2383 38.24C13.2116 38.24 11.3583 37.8267 9.67828 37C7.99828 36.1467 6.54495 35.0267 5.31828 33.64C4.11828 32.2267 3.17161 30.6533 2.47828 28.92C1.81161 27.16 1.47828 25.3867 1.47828 23.6ZM49.702 38.4C47.9954 38.4 46.462 38.12 45.102 37.56C43.742 36.9733 42.582 36.1733 41.622 35.16C40.6887 34.1467 39.9687 32.9867 39.462 31.68C38.9554 30.3733 38.702 29 38.702 27.56C38.702 26.0933 38.9554 24.7067 39.462 23.4C39.9687 22.0933 40.6887 20.9333 41.622 19.92C42.582 18.9067 43.742 18.12 45.102 17.56C46.462 16.9733 47.9954 16.68 49.702 16.68C51.4087 16.68 52.9287 16.9733 54.262 17.56C55.622 18.12 56.782 18.9067 57.742 19.92C58.702 20.9333 59.422 22.0933 59.902 23.4C60.4087 24.7067 60.662 26.0933 60.662 27.56C60.662 29 60.4087 30.3733 59.902 31.68C59.422 32.9867 58.702 34.1467 57.742 35.16C56.8087 36.1733 55.662 36.9733 54.302 37.56C52.942 38.12 51.4087 38.4 49.702 38.4ZM44.222 27.56C44.222 28.7867 44.462 29.88 44.942 30.84C45.422 31.7733 46.0754 32.5067 46.902 33.04C47.7287 33.5733 48.662 33.84 49.702 33.84C50.7154 33.84 51.6354 33.5733 52.462 33.04C53.2887 32.48 53.942 31.7333 54.422 30.8C54.9287 29.84 55.182 28.7467 55.182 27.52C55.182 26.32 54.9287 25.24 54.422 24.28C53.942 23.32 53.2887 22.5733 52.462 22.04C51.6354 21.5067 50.7154 21.24 49.702 21.24C48.662 21.24 47.7287 21.52 46.902 22.08C46.0754 22.6133 45.422 23.36 44.942 24.32C44.462 25.2533 44.222 26.3333 44.222 27.56ZM98.4455 9.6L78.6055 38H72.6855L92.4855 9.6H98.4455ZM109.603 23.6C109.603 21.8667 109.91 20.1733 110.523 18.52C111.163 16.84 112.083 15.32 113.283 13.96C114.483 12.5733 115.95 11.48 117.683 10.68C119.417 9.85333 121.39 9.44 123.603 9.44C126.217 9.44 128.47 10.0133 130.363 11.16C132.283 12.3067 133.71 13.8 134.643 15.64L130.403 18.56C129.923 17.4933 129.297 16.6533 128.523 16.04C127.75 15.4 126.923 14.96 126.043 14.72C125.163 14.4533 124.297 14.32 123.443 14.32C122.057 14.32 120.843 14.6 119.803 15.16C118.79 15.72 117.937 16.4533 117.243 17.36C116.55 18.2667 116.03 19.28 115.683 20.4C115.363 21.52 115.203 22.64 115.203 23.76C115.203 25.0133 115.403 26.2267 115.803 27.4C116.203 28.5467 116.763 29.5733 117.483 30.48C118.23 31.36 119.11 32.0667 120.123 32.6C121.163 33.1067 122.297 33.36 123.523 33.36C124.403 33.36 125.297 33.2133 126.203 32.92C127.11 32.6267 127.95 32.16 128.723 31.52C129.497 30.88 130.097 30.0533 130.523 29.04L135.043 31.64C134.483 33.0533 133.563 34.2533 132.283 35.24C131.03 36.2267 129.617 36.9733 128.043 37.48C126.47 37.9867 124.91 38.24 123.363 38.24C121.337 38.24 119.483 37.8267 117.803 37C116.123 36.1467 114.67 35.0267 113.443 33.64C112.243 32.2267 111.297 30.6533 110.603 28.92C109.937 27.16 109.603 25.3867 109.603 23.6ZM167.705 38H162.345V26.24C162.345 24.6133 162.025 23.4 161.385 22.6C160.772 21.8 159.918 21.4 158.825 21.4C158.185 21.4 157.505 21.5867 156.785 21.96C156.065 22.3333 155.412 22.8533 154.825 23.52C154.265 24.16 153.852 24.9067 153.585 25.76V38H148.225V8.8H153.585V20.92C154.358 19.5867 155.412 18.5467 156.745 17.8C158.078 17.0533 159.532 16.68 161.105 16.68C162.465 16.68 163.572 16.92 164.425 17.4C165.278 17.8533 165.945 18.48 166.425 19.28C166.905 20.0533 167.238 20.9333 167.425 21.92C167.612 22.88 167.705 23.88 167.705 24.92V38ZM192.046 38.4C190.339 38.4 188.806 38.12 187.446 37.56C186.086 36.9733 184.926 36.1733 183.966 35.16C183.032 34.1467 182.312 32.9867 181.806 31.68C181.299 30.3733 181.046 29 181.046 27.56C181.046 26.0933 181.299 24.7067 181.806 23.4C182.312 22.0933 183.032 20.9333 183.966 19.92C184.926 18.9067 186.086 18.12 187.446 17.56C188.806 16.9733 190.339 16.68 192.046 16.68C193.752 16.68 195.272 16.9733 196.606 17.56C197.966 18.12 199.126 18.9067 200.086 19.92C201.046 20.9333 201.766 22.0933 202.246 23.4C202.752 24.7067 203.006 26.0933 203.006 27.56C203.006 29 202.752 30.3733 202.246 31.68C201.766 32.9867 201.046 34.1467 200.086 35.16C199.152 36.1733 198.006 36.9733 196.646 37.56C195.286 38.12 193.752 38.4 192.046 38.4ZM186.566 27.56C186.566 28.7867 186.806 29.88 187.286 30.84C187.766 31.7733 188.419 32.5067 189.246 33.04C190.072 33.5733 191.006 33.84 192.046 33.84C193.059 33.84 193.979 33.5733 194.806 33.04C195.632 32.48 196.286 31.7333 196.766 30.8C197.272 29.84 197.526 28.7467 197.526 27.52C197.526 26.32 197.272 25.24 196.766 24.28C196.286 23.32 195.632 22.5733 194.806 22.04C193.979 21.5067 193.059 21.24 192.046 21.24C191.006 21.24 190.072 21.52 189.246 22.08C188.419 22.6133 187.766 23.36 187.286 24.32C186.806 25.2533 186.566 26.3333 186.566 27.56ZM226.384 38.4C224.677 38.4 223.144 38.12 221.784 37.56C220.424 36.9733 219.264 36.1733 218.304 35.16C217.344 34.12 216.597 32.9467 216.064 31.64C215.557 30.3333 215.304 28.96 215.304 27.52C215.304 25.5467 215.744 23.7467 216.624 22.12C217.53 20.4667 218.81 19.1467 220.464 18.16C222.117 17.1733 224.077 16.68 226.344 16.68C228.61 16.68 230.557 17.1733 232.184 18.16C233.81 19.1467 235.024 20.44 235.824 22.04L230.584 23.64C230.13 22.8667 229.53 22.28 228.784 21.88C228.037 21.4533 227.21 21.24 226.304 21.24C225.29 21.24 224.357 21.5067 223.504 22.04C222.677 22.5467 222.024 23.28 221.544 24.24C221.064 25.1733 220.824 26.2667 220.824 27.52C220.824 28.7467 221.064 29.84 221.544 30.8C222.05 31.7333 222.717 32.48 223.544 33.04C224.37 33.5733 225.29 33.84 226.304 33.84C226.944 33.84 227.544 33.7333 228.104 33.52C228.69 33.3067 229.21 33.0133 229.664 32.64C230.117 32.2667 230.45 31.84 230.664 31.36L235.904 32.96C235.424 34 234.717 34.9333 233.784 35.76C232.877 36.5867 231.797 37.24 230.544 37.72C229.317 38.1733 227.93 38.4 226.384 38.4Z" fill="#020202"/>
<path d="M4.05956 49.19H5.59956L8.47056 57H6.90856L6.18256 55.053H3.45456L2.73956 57H1.17756L4.05956 49.19ZM5.90756 53.986L4.82956 50.763L3.70756 53.986H5.90756ZM20.3215 51.236H21.7185L19.3095 57H18.0775L17.1095 54.525L16.1635 57H14.9205L12.5225 51.236H13.9085L15.6245 55.592L16.2955 53.711L15.2945 51.247H16.5155L17.1095 53.007L17.7145 51.247H18.9355L17.9345 53.711L18.6165 55.592L20.3215 51.236ZM22.8634 55.295C22.8634 54.921 22.966 54.5947 23.1714 54.316C23.384 54.03 23.6774 53.81 24.0514 53.656C24.4254 53.502 24.8544 53.425 25.3384 53.425C25.5804 53.425 25.826 53.4433 26.0754 53.48C26.3247 53.5167 26.541 53.5753 26.7244 53.656V53.348C26.7244 52.9813 26.6144 52.699 26.3944 52.501C26.1817 52.303 25.8627 52.204 25.4374 52.204C25.122 52.204 24.8214 52.259 24.5354 52.369C24.2494 52.479 23.9487 52.6403 23.6334 52.853L23.1604 51.885C23.5417 51.6357 23.9304 51.4487 24.3264 51.324C24.7297 51.1993 25.1514 51.137 25.5914 51.137C26.4127 51.137 27.0507 51.3423 27.5054 51.753C27.9674 52.1637 28.1984 52.7503 28.1984 53.513V55.35C28.1984 55.504 28.224 55.614 28.2754 55.68C28.334 55.746 28.4257 55.7863 28.5504 55.801V57C28.4184 57.022 28.2974 57.0403 28.1874 57.055C28.0847 57.0697 27.9967 57.077 27.9234 57.077C27.63 57.077 27.4064 57.011 27.2524 56.879C27.1057 56.747 27.014 56.5857 26.9774 56.395L26.9444 56.098C26.695 56.4207 26.3834 56.67 26.0094 56.846C25.6354 57.022 25.254 57.11 24.8654 57.11C24.484 57.11 24.1394 57.033 23.8314 56.879C23.5307 56.7177 23.2924 56.5013 23.1164 56.23C22.9477 55.9513 22.8634 55.6397 22.8634 55.295ZM26.4494 55.592C26.53 55.504 26.596 55.416 26.6474 55.328C26.6987 55.24 26.7244 55.1593 26.7244 55.086V54.503C26.5484 54.4297 26.3577 54.3747 26.1524 54.338C25.947 54.294 25.7527 54.272 25.5694 54.272C25.188 54.272 24.8727 54.3563 24.6234 54.525C24.3814 54.6863 24.2604 54.9027 24.2604 55.174C24.2604 55.3207 24.3007 55.46 24.3814 55.592C24.462 55.724 24.5794 55.8303 24.7334 55.911C24.8874 55.9917 25.0707 56.032 25.2834 56.032C25.5034 56.032 25.7197 55.9917 25.9324 55.911C26.145 55.823 26.3174 55.7167 26.4494 55.592ZM30.4819 58.122C30.6139 58.1513 30.7349 58.177 30.8449 58.199C30.9623 58.221 31.0613 58.232 31.1419 58.232C31.2813 58.232 31.3949 58.1953 31.4829 58.122C31.5783 58.056 31.6699 57.9313 31.7579 57.748C31.8459 57.572 31.9376 57.3227 32.0329 57L29.7559 51.236H31.2849L32.8359 55.493L34.1999 51.236H35.6079L33.1879 58.144C33.0999 58.4007 32.9643 58.6317 32.7809 58.837C32.6049 59.0497 32.3813 59.2147 32.1099 59.332C31.8459 59.4567 31.5489 59.519 31.2189 59.519C31.1016 59.519 30.9843 59.508 30.8669 59.486C30.7496 59.4713 30.6213 59.442 30.4819 59.398V58.122ZM44.2261 56.703C44.1014 56.7543 43.9511 56.813 43.7751 56.879C43.5991 56.945 43.4084 56.9963 43.2031 57.033C43.0051 57.077 42.8034 57.099 42.5981 57.099C42.3267 57.099 42.0774 57.0513 41.8501 56.956C41.6227 56.8607 41.4394 56.7103 41.3001 56.505C41.1681 56.2923 41.1021 56.0173 41.1021 55.68V52.369H40.3431V51.236H41.1021V49.366H42.5761V51.236H43.7861V52.369H42.5761V55.185C42.5834 55.383 42.6384 55.526 42.7411 55.614C42.8437 55.702 42.9721 55.746 43.1261 55.746C43.2801 55.746 43.4304 55.7203 43.5771 55.669C43.7237 55.6177 43.8411 55.5737 43.9291 55.537L44.2261 56.703ZM48.5913 57.11C48.122 57.11 47.7003 57.033 47.3263 56.879C46.9523 56.7177 46.6333 56.4977 46.3693 56.219C46.1126 55.9403 45.9146 55.6213 45.7753 55.262C45.636 54.9027 45.5663 54.525 45.5663 54.129C45.5663 53.7257 45.636 53.3443 45.7753 52.985C45.9146 52.6257 46.1126 52.3067 46.3693 52.028C46.6333 51.7493 46.9523 51.533 47.3263 51.379C47.7003 51.2177 48.122 51.137 48.5913 51.137C49.0606 51.137 49.4786 51.2177 49.8453 51.379C50.2193 51.533 50.5383 51.7493 50.8023 52.028C51.0663 52.3067 51.2643 52.6257 51.3963 52.985C51.5356 53.3443 51.6053 53.7257 51.6053 54.129C51.6053 54.525 51.5356 54.9027 51.3963 55.262C51.2643 55.6213 51.0663 55.9403 50.8023 56.219C50.5456 56.4977 50.2303 56.7177 49.8563 56.879C49.4823 57.033 49.0606 57.11 48.5913 57.11ZM47.0843 54.129C47.0843 54.4663 47.1503 54.767 47.2823 55.031C47.4143 55.2877 47.594 55.4893 47.8213 55.636C48.0486 55.7827 48.3053 55.856 48.5913 55.856C48.87 55.856 49.123 55.7827 49.3503 55.636C49.5776 55.482 49.7573 55.2767 49.8893 55.02C50.0286 54.756 50.0983 54.4553 50.0983 54.118C50.0983 53.788 50.0286 53.491 49.8893 53.227C49.7573 52.963 49.5776 52.7577 49.3503 52.611C49.123 52.4643 48.87 52.391 48.5913 52.391C48.3053 52.391 48.0486 52.468 47.8213 52.622C47.594 52.7687 47.4143 52.974 47.2823 53.238C47.1503 53.4947 47.0843 53.7917 47.0843 54.129ZM59.9158 57.11C59.4538 57.11 59.0358 57.033 58.6618 56.879C58.2878 56.7177 57.9688 56.5013 57.7048 56.23C57.4408 55.9513 57.2354 55.636 57.0888 55.284C56.9494 54.9247 56.8798 54.547 56.8798 54.151C56.8798 53.601 57.0008 53.0987 57.2428 52.644C57.4921 52.1893 57.8441 51.8263 58.2988 51.555C58.7608 51.2763 59.3034 51.137 59.9268 51.137C60.5574 51.137 61.0964 51.2763 61.5438 51.555C61.9911 51.8263 62.3321 52.1893 62.5668 52.644C62.8088 53.0913 62.9298 53.5753 62.9298 54.096C62.9298 54.184 62.9261 54.2757 62.9188 54.371C62.9114 54.459 62.9041 54.5323 62.8968 54.591H58.4418C58.4711 54.8843 58.5554 55.141 58.6948 55.361C58.8414 55.581 59.0248 55.7497 59.2448 55.867C59.4721 55.977 59.7141 56.032 59.9708 56.032C60.2641 56.032 60.5391 55.9623 60.7958 55.823C61.0598 55.6763 61.2394 55.4857 61.3348 55.251L62.5998 55.603C62.4604 55.8963 62.2588 56.1567 61.9948 56.384C61.7381 56.6113 61.4338 56.791 61.0818 56.923C60.7298 57.0477 60.3411 57.11 59.9158 57.11ZM58.4088 53.656H61.4228C61.3934 53.3627 61.3091 53.1097 61.1698 52.897C61.0378 52.677 60.8618 52.5083 60.6418 52.391C60.4218 52.2663 60.1761 52.204 59.9048 52.204C59.6408 52.204 59.3988 52.2663 59.1788 52.391C58.9661 52.5083 58.7901 52.677 58.6508 52.897C58.5188 53.1097 58.4381 53.3627 58.4088 53.656ZM70.1847 57H68.7107V53.766C68.7107 53.304 68.6301 52.9667 68.4687 52.754C68.3074 52.5413 68.0837 52.435 67.7977 52.435C67.5997 52.435 67.3981 52.4863 67.1927 52.589C66.9947 52.6917 66.8151 52.8347 66.6537 53.018C66.4924 53.194 66.3751 53.3993 66.3017 53.634V57H64.8277V51.236H66.1587V52.303C66.3054 52.0537 66.4924 51.8447 66.7197 51.676C66.9471 51.5 67.2074 51.368 67.5007 51.28C67.8014 51.1847 68.1167 51.137 68.4467 51.137C68.8061 51.137 69.0994 51.203 69.3267 51.335C69.5614 51.4597 69.7374 51.632 69.8547 51.852C69.9794 52.0647 70.0637 52.3067 70.1077 52.578C70.1591 52.8493 70.1847 53.1243 70.1847 53.403V57ZM71.9934 59.156C71.7221 59.156 71.4617 59.112 71.2124 59.024C70.9631 58.9433 70.7357 58.815 70.5304 58.639L71.1684 57.638C71.2491 57.726 71.3481 57.7883 71.4654 57.825C71.5827 57.8617 71.7001 57.88 71.8174 57.88C71.9494 57.88 72.0667 57.847 72.1694 57.781C72.2794 57.7223 72.3637 57.638 72.4224 57.528C72.4884 57.418 72.5214 57.2933 72.5214 57.154V51.236H73.9954V57.044C73.9954 57.4547 73.9037 57.8213 73.7204 58.144C73.5444 58.4667 73.3061 58.716 73.0054 58.892C72.7121 59.068 72.3747 59.156 71.9934 59.156ZM72.5214 50.433V48.97H73.9954V50.433H72.5214ZM78.9966 57.11C78.5272 57.11 78.1056 57.033 77.7316 56.879C77.3576 56.7177 77.0386 56.4977 76.7746 56.219C76.5179 55.9403 76.3199 55.6213 76.1806 55.262C76.0412 54.9027 75.9716 54.525 75.9716 54.129C75.9716 53.7257 76.0412 53.3443 76.1806 52.985C76.3199 52.6257 76.5179 52.3067 76.7746 52.028C77.0386 51.7493 77.3576 51.533 77.7316 51.379C78.1056 51.2177 78.5272 51.137 78.9966 51.137C79.4659 51.137 79.8839 51.2177 80.2506 51.379C80.6246 51.533 80.9436 51.7493 81.2076 52.028C81.4716 52.3067 81.6696 52.6257 81.8016 52.985C81.9409 53.3443 82.0106 53.7257 82.0106 54.129C82.0106 54.525 81.9409 54.9027 81.8016 55.262C81.6696 55.6213 81.4716 55.9403 81.2076 56.219C80.9509 56.4977 80.6356 56.7177 80.2616 56.879C79.8876 57.033 79.4659 57.11 78.9966 57.11ZM77.4896 54.129C77.4896 54.4663 77.5556 54.767 77.6876 55.031C77.8196 55.2877 77.9992 55.4893 78.2266 55.636C78.4539 55.7827 78.7106 55.856 78.9966 55.856C79.2752 55.856 79.5282 55.7827 79.7556 55.636C79.9829 55.482 80.1626 55.2767 80.2946 55.02C80.4339 54.756 80.5036 54.4553 80.5036 54.118C80.5036 53.788 80.4339 53.491 80.2946 53.227C80.1626 52.963 79.9829 52.7577 79.7556 52.611C79.5282 52.4643 79.2752 52.391 78.9966 52.391C78.7106 52.391 78.4539 52.468 78.2266 52.622C77.9992 52.7687 77.8196 52.974 77.6876 53.238C77.5556 53.4947 77.4896 53.7917 77.4896 54.129ZM83.9116 58.122C84.0436 58.1513 84.1646 58.177 84.2746 58.199C84.392 58.221 84.491 58.232 84.5716 58.232C84.711 58.232 84.8246 58.1953 84.9126 58.122C85.008 58.056 85.0996 57.9313 85.1876 57.748C85.2756 57.572 85.3673 57.3227 85.4626 57L83.1856 51.236H84.7146L86.2656 55.493L87.6296 51.236H89.0376L86.6176 58.144C86.5296 58.4007 86.394 58.6317 86.2106 58.837C86.0346 59.0497 85.811 59.2147 85.5396 59.332C85.2756 59.4567 84.9786 59.519 84.6486 59.519C84.5313 59.519 84.414 59.508 84.2966 59.486C84.1793 59.4713 84.051 59.442 83.9116 59.398V58.122ZM97.4798 57.11C97.0398 57.11 96.6474 57.011 96.3028 56.813C95.9581 56.615 95.6868 56.3437 95.4888 55.999V57H94.2018V48.97H95.6758V52.248C95.8811 51.9033 96.1488 51.632 96.4788 51.434C96.8161 51.236 97.2084 51.137 97.6558 51.137C98.0298 51.137 98.3708 51.2177 98.6788 51.379C98.9868 51.533 99.2508 51.7493 99.4708 52.028C99.6981 52.3067 99.8704 52.6257 99.9878 52.985C100.112 53.3443 100.175 53.7293 100.175 54.14C100.175 54.5507 100.105 54.9357 99.9658 55.295C99.8338 55.6543 99.6468 55.9733 99.4048 56.252C99.1628 56.5233 98.8768 56.736 98.5468 56.89C98.2241 57.0367 97.8684 57.11 97.4798 57.11ZM97.0728 55.856C97.3074 55.856 97.5201 55.812 97.7108 55.724C97.9088 55.6287 98.0774 55.504 98.2168 55.35C98.3634 55.196 98.4734 55.0163 98.5468 54.811C98.6274 54.5983 98.6678 54.3783 98.6678 54.151C98.6678 53.8357 98.6018 53.546 98.4698 53.282C98.3451 53.0107 98.1691 52.7943 97.9418 52.633C97.7218 52.4717 97.4614 52.391 97.1608 52.391C96.9481 52.391 96.7428 52.4423 96.5448 52.545C96.3541 52.6403 96.1818 52.7723 96.0278 52.941C95.8811 53.1097 95.7638 53.3003 95.6758 53.513V54.888C95.7198 55.0347 95.7894 55.1667 95.8848 55.284C95.9874 55.4013 96.1048 55.504 96.2368 55.592C96.3688 55.6727 96.5044 55.7387 96.6438 55.79C96.7904 55.834 96.9334 55.856 97.0728 55.856ZM102.173 57V51.236H103.647V57H102.173ZM102.173 50.433V48.97H103.647V50.433H102.173ZM109.431 56.703C109.306 56.7543 109.156 56.813 108.98 56.879C108.804 56.945 108.613 56.9963 108.408 57.033C108.21 57.077 108.008 57.099 107.803 57.099C107.532 57.099 107.282 57.0513 107.055 56.956C106.828 56.8607 106.644 56.7103 106.505 56.505C106.373 56.2923 106.307 56.0173 106.307 55.68V52.369H105.548V51.236H106.307V49.366H107.781V51.236H108.991V52.369H107.781V55.185C107.788 55.383 107.843 55.526 107.946 55.614C108.049 55.702 108.177 55.746 108.331 55.746C108.485 55.746 108.635 55.7203 108.782 55.669C108.929 55.6177 109.046 55.5737 109.134 55.537L109.431 56.703ZM114.631 56.703C114.507 56.7543 114.356 56.813 114.18 56.879C114.004 56.945 113.814 56.9963 113.608 57.033C113.41 57.077 113.209 57.099 113.003 57.099C112.732 57.099 112.483 57.0513 112.255 56.956C112.028 56.8607 111.845 56.7103 111.705 56.505C111.573 56.2923 111.507 56.0173 111.507 55.68V52.369H110.748V51.236H111.507V49.366H112.981V51.236H114.191V52.369H112.981V55.185C112.989 55.383 113.044 55.526 113.146 55.614C113.249 55.702 113.377 55.746 113.531 55.746C113.685 55.746 113.836 55.7203 113.982 55.669C114.129 55.6177 114.246 55.5737 114.334 55.537L114.631 56.703ZM119.008 57.11C118.546 57.11 118.128 57.033 117.754 56.879C117.38 56.7177 117.061 56.5013 116.797 56.23C116.533 55.9513 116.327 55.636 116.181 55.284C116.041 54.9247 115.972 54.547 115.972 54.151C115.972 53.601 116.093 53.0987 116.335 52.644C116.584 52.1893 116.936 51.8263 117.391 51.555C117.853 51.2763 118.395 51.137 119.019 51.137C119.649 51.137 120.188 51.2763 120.636 51.555C121.083 51.8263 121.424 52.1893 121.659 52.644C121.901 53.0913 122.022 53.5753 122.022 54.096C122.022 54.184 122.018 54.2757 122.011 54.371C122.003 54.459 121.996 54.5323 121.989 54.591H117.534C117.563 54.8843 117.647 55.141 117.787 55.361C117.933 55.581 118.117 55.7497 118.337 55.867C118.564 55.977 118.806 56.032 119.063 56.032C119.356 56.032 119.631 55.9623 119.888 55.823C120.152 55.6763 120.331 55.4857 120.427 55.251L121.692 55.603C121.552 55.8963 121.351 56.1567 121.087 56.384C120.83 56.6113 120.526 56.791 120.174 56.923C119.822 57.0477 119.433 57.11 119.008 57.11ZM117.501 53.656H120.515C120.485 53.3627 120.401 53.1097 120.262 52.897C120.13 52.677 119.954 52.5083 119.734 52.391C119.514 52.2663 119.268 52.204 118.997 52.204C118.733 52.204 118.491 52.2663 118.271 52.391C118.058 52.5083 117.882 52.677 117.743 52.897C117.611 53.1097 117.53 53.3627 117.501 53.656ZM127.352 52.512C126.904 52.512 126.505 52.6 126.153 52.776C125.801 52.9447 125.548 53.1903 125.394 53.513V57H123.92V51.236H125.273V52.468C125.478 52.072 125.738 51.7603 126.054 51.533C126.369 51.3057 126.703 51.181 127.055 51.159C127.135 51.159 127.198 51.159 127.242 51.159C127.286 51.159 127.322 51.1627 127.352 51.17V52.512ZM132.173 55.295C132.173 54.921 132.276 54.5947 132.481 54.316C132.694 54.03 132.987 53.81 133.361 53.656C133.735 53.502 134.164 53.425 134.648 53.425C134.89 53.425 135.136 53.4433 135.385 53.48C135.634 53.5167 135.851 53.5753 136.034 53.656V53.348C136.034 52.9813 135.924 52.699 135.704 52.501C135.491 52.303 135.172 52.204 134.747 52.204C134.432 52.204 134.131 52.259 133.845 52.369C133.559 52.479 133.258 52.6403 132.943 52.853L132.47 51.885C132.851 51.6357 133.24 51.4487 133.636 51.324C134.039 51.1993 134.461 51.137 134.901 51.137C135.722 51.137 136.36 51.3423 136.815 51.753C137.277 52.1637 137.508 52.7503 137.508 53.513V55.35C137.508 55.504 137.534 55.614 137.585 55.68C137.644 55.746 137.735 55.7863 137.86 55.801V57C137.728 57.022 137.607 57.0403 137.497 57.055C137.394 57.0697 137.306 57.077 137.233 57.077C136.94 57.077 136.716 57.011 136.562 56.879C136.415 56.747 136.324 56.5857 136.287 56.395L136.254 56.098C136.005 56.4207 135.693 56.67 135.319 56.846C134.945 57.022 134.564 57.11 134.175 57.11C133.794 57.11 133.449 57.033 133.141 56.879C132.84 56.7177 132.602 56.5013 132.426 56.23C132.257 55.9513 132.173 55.6397 132.173 55.295ZM135.759 55.592C135.84 55.504 135.906 55.416 135.957 55.328C136.008 55.24 136.034 55.1593 136.034 55.086V54.503C135.858 54.4297 135.667 54.3747 135.462 54.338C135.257 54.294 135.062 54.272 134.879 54.272C134.498 54.272 134.182 54.3563 133.933 54.525C133.691 54.6863 133.57 54.9027 133.57 55.174C133.57 55.3207 133.61 55.46 133.691 55.592C133.772 55.724 133.889 55.8303 134.043 55.911C134.197 55.9917 134.38 56.032 134.593 56.032C134.813 56.032 135.029 55.9917 135.242 55.911C135.455 55.823 135.627 55.7167 135.759 55.592ZM145.242 57H143.768V53.766C143.768 53.304 143.688 52.9667 143.526 52.754C143.365 52.5413 143.141 52.435 142.855 52.435C142.657 52.435 142.456 52.4863 142.25 52.589C142.052 52.6917 141.873 52.8347 141.711 53.018C141.55 53.194 141.433 53.3993 141.359 53.634V57H139.885V51.236H141.216V52.303C141.363 52.0537 141.55 51.8447 141.777 51.676C142.005 51.5 142.265 51.368 142.558 51.28C142.859 51.1847 143.174 51.137 143.504 51.137C143.864 51.137 144.157 51.203 144.384 51.335C144.619 51.4597 144.795 51.632 144.912 51.852C145.037 52.0647 145.121 52.3067 145.165 52.578C145.217 52.8493 145.242 53.1243 145.242 53.403V57ZM147.172 54.118C147.172 53.5607 147.282 53.0583 147.502 52.611C147.722 52.1563 148.026 51.797 148.415 51.533C148.804 51.269 149.247 51.137 149.746 51.137C150.171 51.137 150.553 51.2433 150.89 51.456C151.235 51.6613 151.502 51.9253 151.693 52.248V48.97H153.167V55.35C153.167 55.504 153.193 55.614 153.244 55.68C153.295 55.746 153.383 55.7863 153.508 55.801V57C153.251 57.0513 153.042 57.077 152.881 57.077C152.617 57.077 152.397 57.011 152.221 56.879C152.052 56.747 151.957 56.5747 151.935 56.362L151.913 55.999C151.7 56.3583 151.411 56.6333 151.044 56.824C150.685 57.0147 150.307 57.11 149.911 57.11C149.515 57.11 149.148 57.033 148.811 56.879C148.481 56.725 148.191 56.5123 147.942 56.241C147.7 55.9697 147.509 55.6543 147.37 55.295C147.238 54.9283 147.172 54.536 147.172 54.118ZM151.693 54.888V53.513C151.62 53.3003 151.502 53.1097 151.341 52.941C151.18 52.7723 151 52.6403 150.802 52.545C150.604 52.4423 150.406 52.391 150.208 52.391C149.981 52.391 149.775 52.4387 149.592 52.534C149.409 52.6293 149.247 52.7577 149.108 52.919C148.976 53.0803 148.873 53.2673 148.8 53.48C148.734 53.6927 148.701 53.9163 148.701 54.151C148.701 54.3857 148.738 54.6093 148.811 54.822C148.892 55.0273 149.005 55.207 149.152 55.361C149.299 55.515 149.467 55.636 149.658 55.724C149.856 55.812 150.069 55.856 150.296 55.856C150.435 55.856 150.575 55.834 150.714 55.79C150.861 55.7387 150.996 55.6727 151.121 55.592C151.253 55.504 151.367 55.4013 151.462 55.284C151.565 55.1593 151.642 55.0273 151.693 54.888ZM161.379 57.11C160.888 57.11 160.419 57.0293 159.971 56.868C159.524 56.7067 159.139 56.4683 158.816 56.153L159.344 55.196C159.689 55.4747 160.026 55.68 160.356 55.812C160.694 55.944 161.016 56.01 161.324 56.01C161.61 56.01 161.838 55.9587 162.006 55.856C162.182 55.7533 162.27 55.5993 162.27 55.394C162.27 55.2547 162.223 55.1483 162.127 55.075C162.032 54.9943 161.893 54.9247 161.709 54.866C161.533 54.8073 161.317 54.7413 161.06 54.668C160.635 54.5287 160.279 54.393 159.993 54.261C159.707 54.129 159.491 53.964 159.344 53.766C159.205 53.5607 159.135 53.3003 159.135 52.985C159.135 52.6037 159.231 52.2773 159.421 52.006C159.619 51.7273 159.891 51.511 160.235 51.357C160.587 51.203 160.998 51.126 161.467 51.126C161.878 51.126 162.267 51.192 162.633 51.324C163 51.4487 163.334 51.654 163.634 51.94L163.04 52.875C162.747 52.6477 162.468 52.4827 162.204 52.38C161.94 52.27 161.673 52.215 161.401 52.215C161.247 52.215 161.101 52.2333 160.961 52.27C160.829 52.3067 160.719 52.369 160.631 52.457C160.551 52.5377 160.51 52.655 160.51 52.809C160.51 52.9483 160.547 53.0583 160.62 53.139C160.701 53.2123 160.818 53.2783 160.972 53.337C161.134 53.3957 161.328 53.4617 161.555 53.535C162.017 53.667 162.406 53.8027 162.721 53.942C163.044 54.0813 163.286 54.2537 163.447 54.459C163.609 54.657 163.689 54.932 163.689 55.284C163.689 55.856 163.48 56.3033 163.062 56.626C162.644 56.9487 162.083 57.11 161.379 57.11ZM172.713 51.236H174.11L171.701 57H170.469L169.501 54.525L168.555 57H167.312L164.914 51.236H166.3L168.016 55.592L168.687 53.711L167.686 51.247H168.907L169.501 53.007L170.106 51.247H171.327L170.326 53.711L171.008 55.592L172.713 51.236ZM178.27 57.11C177.808 57.11 177.39 57.033 177.016 56.879C176.642 56.7177 176.323 56.5013 176.059 56.23C175.795 55.9513 175.59 55.636 175.443 55.284C175.304 54.9247 175.234 54.547 175.234 54.151C175.234 53.601 175.355 53.0987 175.597 52.644C175.847 52.1893 176.199 51.8263 176.653 51.555C177.115 51.2763 177.658 51.137 178.281 51.137C178.912 51.137 179.451 51.2763 179.898 51.555C180.346 51.8263 180.687 52.1893 180.921 52.644C181.163 53.0913 181.284 53.5753 181.284 54.096C181.284 54.184 181.281 54.2757 181.273 54.371C181.266 54.459 181.259 54.5323 181.251 54.591H176.796C176.826 54.8843 176.91 55.141 177.049 55.361C177.196 55.581 177.379 55.7497 177.599 55.867C177.827 55.977 178.069 56.032 178.325 56.032C178.619 56.032 178.894 55.9623 179.15 55.823C179.414 55.6763 179.594 55.4857 179.689 55.251L180.954 55.603C180.815 55.8963 180.613 56.1567 180.349 56.384C180.093 56.6113 179.788 56.791 179.436 56.923C179.084 57.0477 178.696 57.11 178.27 57.11ZM176.763 53.656H179.777C179.748 53.3627 179.664 53.1097 179.524 52.897C179.392 52.677 179.216 52.5083 178.996 52.391C178.776 52.2663 178.531 52.204 178.259 52.204C177.995 52.204 177.753 52.2663 177.533 52.391C177.321 52.5083 177.145 52.677 177.005 52.897C176.873 53.1097 176.793 53.3627 176.763 53.656ZM185.855 57.11C185.393 57.11 184.975 57.033 184.601 56.879C184.227 56.7177 183.908 56.5013 183.644 56.23C183.38 55.9513 183.175 55.636 183.028 55.284C182.889 54.9247 182.819 54.547 182.819 54.151C182.819 53.601 182.94 53.0987 183.182 52.644C183.432 52.1893 183.784 51.8263 184.238 51.555C184.7 51.2763 185.243 51.137 185.866 51.137C186.497 51.137 187.036 51.2763 187.483 51.555C187.931 51.8263 188.272 52.1893 188.506 52.644C188.748 53.0913 188.869 53.5753 188.869 54.096C188.869 54.184 188.866 54.2757 188.858 54.371C188.851 54.459 188.844 54.5323 188.836 54.591H184.381C184.411 54.8843 184.495 55.141 184.634 55.361C184.781 55.581 184.964 55.7497 185.184 55.867C185.412 55.977 185.654 56.032 185.91 56.032C186.204 56.032 186.479 55.9623 186.735 55.823C186.999 55.6763 187.179 55.4857 187.274 55.251L188.539 55.603C188.4 55.8963 188.198 56.1567 187.934 56.384C187.678 56.6113 187.373 56.791 187.021 56.923C186.669 57.0477 186.281 57.11 185.855 57.11ZM184.348 53.656H187.362C187.333 53.3627 187.249 53.1097 187.109 52.897C186.977 52.677 186.801 52.5083 186.581 52.391C186.361 52.2663 186.116 52.204 185.844 52.204C185.58 52.204 185.338 52.2663 185.118 52.391C184.906 52.5083 184.73 52.677 184.59 52.897C184.458 53.1097 184.378 53.3627 184.348 53.656ZM194.167 56.703C194.043 56.7543 193.892 56.813 193.716 56.879C193.54 56.945 193.35 56.9963 193.144 57.033C192.946 57.077 192.745 57.099 192.539 57.099C192.268 57.099 192.019 57.0513 191.791 56.956C191.564 56.8607 191.381 56.7103 191.241 56.505C191.109 56.2923 191.043 56.0173 191.043 55.68V52.369H190.284V51.236H191.043V49.366H192.517V51.236H193.727V52.369H192.517V55.185C192.525 55.383 192.58 55.526 192.682 55.614C192.785 55.702 192.913 55.746 193.067 55.746C193.221 55.746 193.372 55.7203 193.518 55.669C193.665 55.6177 193.782 55.5737 193.87 55.537L194.167 56.703ZM202.24 57.11C201.77 57.11 201.349 57.033 200.975 56.879C200.601 56.7177 200.282 56.4977 200.018 56.219C199.761 55.9403 199.563 55.6213 199.424 55.262C199.284 54.9027 199.215 54.525 199.215 54.129C199.215 53.7257 199.284 53.3443 199.424 52.985C199.563 52.6257 199.761 52.3067 200.018 52.028C200.282 51.7493 200.601 51.533 200.975 51.379C201.349 51.2177 201.77 51.137 202.24 51.137C202.709 51.137 203.127 51.2177 203.494 51.379C203.868 51.533 204.187 51.7493 204.451 52.028C204.715 52.3067 204.913 52.6257 205.045 52.985C205.184 53.3443 205.254 53.7257 205.254 54.129C205.254 54.525 205.184 54.9027 205.045 55.262C204.913 55.6213 204.715 55.9403 204.451 56.219C204.194 56.4977 203.879 56.7177 203.505 56.879C203.131 57.033 202.709 57.11 202.24 57.11ZM200.733 54.129C200.733 54.4663 200.799 54.767 200.931 55.031C201.063 55.2877 201.242 55.4893 201.47 55.636C201.697 55.7827 201.954 55.856 202.24 55.856C202.518 55.856 202.771 55.7827 202.999 55.636C203.226 55.482 203.406 55.2767 203.538 55.02C203.677 54.756 203.747 54.4553 203.747 54.118C203.747 53.788 203.677 53.491 203.538 53.227C203.406 52.963 203.226 52.7577 202.999 52.611C202.771 52.4643 202.518 52.391 202.24 52.391C201.954 52.391 201.697 52.468 201.47 52.622C201.242 52.7687 201.063 52.974 200.931 53.238C200.799 53.4947 200.733 53.7917 200.733 54.129ZM207.547 57V52.666H206.788V51.544H207.547V51.192C207.547 50.7153 207.624 50.3047 207.778 49.96C207.939 49.608 208.163 49.3367 208.449 49.146C208.742 48.9553 209.083 48.86 209.472 48.86C209.707 48.86 209.941 48.8893 210.176 48.948C210.418 49.0067 210.656 49.091 210.891 49.201L210.594 50.312C210.484 50.2533 210.356 50.2057 210.209 50.169C210.062 50.125 209.923 50.103 209.791 50.103C209.542 50.103 209.351 50.191 209.219 50.367C209.087 50.543 209.021 50.7997 209.021 51.137V51.544H210.429V52.666H209.021V57H207.547ZM215.661 48.97H217.135V55.152C217.135 55.416 217.179 55.5957 217.267 55.691C217.355 55.779 217.476 55.823 217.63 55.823C217.748 55.823 217.869 55.8083 217.993 55.779C218.118 55.7497 218.228 55.713 218.323 55.669L218.521 56.791C218.323 56.8863 218.092 56.9597 217.828 57.011C217.564 57.0623 217.326 57.088 217.113 57.088C216.651 57.088 216.292 56.967 216.035 56.725C215.786 56.4757 215.661 56.1237 215.661 55.669V48.97ZM220.164 57V51.236H221.638V57H220.164ZM220.164 50.433V48.97H221.638V50.433H220.164ZM224.319 57V52.666H223.56V51.544H224.319V51.192C224.319 50.7153 224.396 50.3047 224.55 49.96C224.712 49.608 224.935 49.3367 225.221 49.146C225.515 48.9553 225.856 48.86 226.244 48.86C226.479 48.86 226.714 48.8893 226.948 48.948C227.19 49.0067 227.429 49.091 227.663 49.201L227.366 50.312C227.256 50.2533 227.128 50.2057 226.981 50.169C226.835 50.125 226.695 50.103 226.563 50.103C226.314 50.103 226.123 50.191 225.991 50.367C225.859 50.543 225.793 50.7997 225.793 51.137V51.544H227.201V52.666H225.793V57H224.319ZM231.636 57.11C231.174 57.11 230.756 57.033 230.382 56.879C230.008 56.7177 229.689 56.5013 229.425 56.23C229.161 55.9513 228.956 55.636 228.809 55.284C228.67 54.9247 228.6 54.547 228.6 54.151C228.6 53.601 228.721 53.0987 228.963 52.644C229.213 52.1893 229.565 51.8263 230.019 51.555C230.481 51.2763 231.024 51.137 231.647 51.137C232.278 51.137 232.817 51.2763 233.264 51.555C233.712 51.8263 234.053 52.1893 234.287 52.644C234.529 53.0913 234.65 53.5753 234.65 54.096C234.65 54.184 234.647 54.2757 234.639 54.371C234.632 54.459 234.625 54.5323 234.617 54.591H230.162C230.192 54.8843 230.276 55.141 230.415 55.361C230.562 55.581 230.745 55.7497 230.965 55.867C231.193 55.977 231.435 56.032 231.691 56.032C231.985 56.032 232.26 55.9623 232.516 55.823C232.78 55.6763 232.96 55.4857 233.055 55.251L234.32 55.603C234.181 55.8963 233.979 56.1567 233.715 56.384C233.459 56.6113 233.154 56.791 232.802 56.923C232.45 57.0477 232.062 57.11 231.636 57.11ZM230.129 53.656H233.143C233.114 53.3627 233.03 53.1097 232.89 52.897C232.758 52.677 232.582 52.5083 232.362 52.391C232.142 52.2663 231.897 52.204 231.625 52.204C231.361 52.204 231.119 52.2663 230.899 52.391C230.687 52.5083 230.511 52.677 230.371 52.897C230.239 53.1097 230.159 53.3627 230.129 53.656Z" fill="black"/>
</svg>
